<?xml version="1.0" encoding="UTF-8" standalone="no"?>
<!-- Created with Inkscape (http://www.inkscape.org/) -->

<svg
   xmlns:dc="http://purl.org/dc/elements/1.1/"
   xmlns:cc="http://creativecommons.org/ns#"
   xmlns:rdf="http://www.w3.org/1999/02/22-rdf-syntax-ns#"
   xmlns:svg="http://www.w3.org/2000/svg"
   xmlns="http://www.w3.org/2000/svg"
   version="1.1"
   width="385"
   height="70"
   id="svg3191">
  <defs
     id="defs3193" />
  <metadata
     id="metadata3196">
    <rdf:RDF>
      <cc:Work
         rdf:about="">
        <dc:format>image/svg+xml</dc:format>
        <dc:type
           rdf:resource="http://purl.org/dc/dcmitype/StillImage" />
        <dc:title></dc:title>
      </cc:Work>
    </rdf:RDF>
  </metadata>
  <g
     transform="translate(-368.5,-739.28504)"
     id="layer1">
    <path
       d="m 385.81869,743.0644 -13.46875,60.78125 17.90625,0 8.25,-32.90625 0.625,32.90625 12.625,0 16.375,-32.90625 -7.21875,32.90625 17.15625,0 13.53125,-60.78125 -24.09375,0 -16.09375,33.65625 -1.25,-33.65625 -24.34375,0 z m 69.1875,0 -2.09375,9.21875 16.09375,0 1.8125,-9.21875 -15.8125,0 z m 250.5625,0.96875 c -3.77195,0.10375 -8.04621,0.61621 -10.09375,2.28125 -5.2751,4.16008 -6.25,12.41749 -6.25,12.5625 l -6.5,0 -2.375,9.28125 c -2.72722,-6.04447 -8.6036,-10.56377 -18.09375,-11.15625 -32.19063,-1.94504 -42.95938,46.20122 -10.96875,47.65625 23.49257,1.10207 35.11206,-21.09277 29.4375,-35.59375 l 6.5,0 -8.3125,34.71875 16.34375,0 7.78125,-34.71875 6.03125,0 -5.40625,24.65625 c -0.41501,2.63505 0.15497,4.96995 1.75,7.125 2.50005,3.25506 5.53124,2.9375 6.78125,2.9375 l 11.8125,0 2.6875,-11.53125 c 0,0 -5.47499,0.76127 -6.375,-0.34375 -0.76002,-0.97002 -0.20501,-2.29123 0,-3.40625 l 4.375,-19 5.6875,0 2.5,-10.34375 -5.625,0 2.28125,-10.6875 -15.75,0 -2.5,10.6875 -6.3125,0 c 0,0 0.69374,-4.44874 1.59375,-5.34375 1.18002,-1.18003 4.25,-1.1875 4.25,-1.1875 l 1.78125,-8.375 c 0,0 -3.2593,-0.32251 -7.03125,-0.21875 z m -138,12.9375 c -11.05091,0.0321 -19.43052,5.88517 -24.28125,13.5 l 2.8125,-12.5625 c -7.91015,0.07 -12.27122,3.4062 -14.28125,5.90625 l 1.25,-5.15625 -15.75,0.625 -10.40625,44.5625 16.84375,0 3.53125,-17.78125 c 1.28374,-6.47703 3.71168,-12.26357 14.5625,-13.09375 -6.8424,13.32891 -3.49236,30.41789 14.15625,32.1875 20.9554,2.01004 27.46875,-14.90625 27.46875,-14.90625 0,0 -3.10672,14.96999 21.59375,15.25 23.10045,0.28 25.37375,-15.05244 25.09375,-18.3125 -0.90001,-11.58523 -10.87358,-11.87247 -20.09375,-13.8125 -7.49514,-1.59504 -5.54387,-7.2975 0.28125,-7.4375 7.36015,-0.13501 5.40625,5.90625 5.40625,5.90625 l 15.75,0 c -0.345,-0.90502 4.38545,-14.84375 -19,-14.84375 -10.75521,0 -21.57872,3.52732 -22.96875,12.6875 -1.94503,12.76524 13.24117,15.18623 17.40625,16.15625 8.60516,1.87503 7.35515,8.75124 0,9.03125 -9.16018,0.28 -6.53125,-7.0625 -6.53125,-7.0625 l -27.75,0 c 0,0 14.21624,-4.78876 14.28125,-4.71875 2.70505,-8.46017 1.13537,-25.32874 -17.875,-26.09375 -0.49876,-0.0216 -1.01158,-0.0327 -1.5,-0.0312 z m -73.875,0.40625 c -33.60366,-0.15672 -39.154,47.79179 -10.46875,48.0625 22.69044,0.21 25.53125,-18.0325 25.53125,-18.3125 l -14.6875,0 c -0.41501,0.69501 -2.77115,6.3125 -7.90625,6.3125 -10.33521,0 -2.92391,-24.7875 6.03125,-25.0625 5.41011,-0.21001 4.5625,6.93624 4.5625,7.28125 l 14.78125,0 c 0,-0.41501 0.57157,-17.34999 -16.21875,-18.25 -0.54751,-0.0271 -1.09161,-0.0289 -1.625,-0.0312 z m -42.3125,1.09375 -10.125,45.4375 16.65625,0 9.71875,-45.4375 -16.25,0 z m 291.96875,0 c -8.39517,0 -8.39517,12.46875 0,12.46875 8.40016,0 8.40016,-12.46875 0,-12.46875 z m 0,1.09375 c 7.08014,0 7.08014,10.21875 0,10.21875 -7.00514,0 -7.00514,-10.21875 0,-10.21875 z m -1.59375,1.875 -1.03125,6.65625 1.25,0 0.40625,-2.6875 0.84375,0 1.03125,2.5 1.46875,0 -1.25,-2.5 c 0.135,0 1.67,3e-5 1.875,-1.875 0.14,-1.66504 -1.53125,-2.09375 -1.53125,-2.09375 l -3.0625,0 z m 1.1875,0.90625 1.25,0 c 0,0 1.03125,0.01 1.03125,1.125 -0.135,1.24502 -1.375,1.03125 -1.375,1.03125 l -1.25,0 0.34375,-2.15625 z m -83.3125,5.125 c 0.54511,-0.0308 1.10124,0.0412 1.65625,0.21875 8.88019,2.78005 1.01393,28.91631 -8.28125,25.65625 -8.19391,-2.92506 -1.55158,-25.41368 6.625,-25.875 z m -93.125,0.0937 c 0.54712,-0.037 1.10968,0.0228 1.65625,0.1875 8.81517,2.77505 0.83144,28.78881 -8.46875,25.59375 -9.10798,-3.31882 -1.39431,-25.22638 6.8125,-25.78125 z"
       id="path238"
       style="fill:#000000;fill-opacity:1;stroke:none" />
  </g>
</svg>
